# This file uses centimeters as units for non-parametric coordinates.

mtllib crayonBoxWithUV.mtl
g default
v -0.475665 -0.049940 -0.648060
v 0.475665 -0.049940 -0.648060
v -0.475665 4.058186 -0.648060
v 0.475665 4.058186 -0.648060
v -0.475665 4.058186 -6.673467
v 0.475665 4.058186 -6.673467
v -0.475665 -0.049940 -6.673467
v 0.475665 -0.049940 -6.673467
v -0.465182 4.094403 -0.648060
v 0.058282 4.888768 -0.648060
v 0.058282 4.888768 -6.673467
v -0.465182 4.094403 -6.673467
v 0.380842 4.919289 -6.673467
v 0.380842 4.919289 -0.648060
v -0.346198 4.482730 -0.485020
v 0.346198 4.482730 -0.485020
v -0.341979 4.479246 -6.824326
v 0.341979 4.479246 -6.824326
vt 0.138908 0.196309
vt 0.189323 0.196309
vt 0.189323 0.675607
vt 0.138908 0.675607
vt 0.182462 0.725138
vt 0.145769 0.725138
vt 0.506041 0.676812
vt 0.506031 0.764483
vt 0.189819 0.764474
vt 0.189829 0.676803
vt 0.506024 0.818506
vt 0.189812 0.818497
vt 0.189829 0.675047
vt 0.506041 0.675057
vt 0.556420 0.675161
vt 0.507535 0.675187
vt 0.507486 0.195208
vt 0.556371 0.195181
vt 0.549556 0.724360
vt 0.514410 0.724379
vt 0.506893 0.129698
vt 0.506893 0.195238
vt 0.189814 0.195238
vt 0.189814 0.129698
vt 0.188620 0.195628
vt 0.507144 0.195628
vt 0.507144 0.674926
vt 0.188620 0.674926
vt 0.556916 0.194540
vt 0.875440 0.194540
vt 0.875440 0.673838
vt 0.556916 0.673838
vn 0.000000 0.000000 1.000000
vn 0.000000 0.000000 1.000000
vn 0.000000 -0.013995 0.999902
vn 0.000000 -0.013995 0.999902
vn -0.835004 0.550244 0.000000
vn -0.698105 0.715995 0.000000
vn -0.698105 0.715995 0.000000
vn -0.835004 0.550244 0.000000
vn 0.000000 -0.012488 -0.999922
vn 0.000000 -0.012488 -0.999922
vn 0.000000 0.000000 -1.000000
vn 0.000000 0.000000 -1.000000
vn 0.000000 -1.000000 0.000000
vn 0.000000 -1.000000 0.000000
vn 0.000000 -1.000000 0.000000
vn 0.000000 -1.000000 0.000000
vn 1.000000 0.000000 0.000000
vn 1.000000 0.000000 0.000000
vn 1.000000 0.000000 0.000000
vn 1.000000 0.000000 0.000000
vn -1.000000 0.000000 0.000000
vn -1.000000 0.000000 0.000000
vn -0.999997 0.002529 0.000000
vn -0.999997 0.002529 0.000000
vn -0.960574 0.278024 0.000000
vn -0.960574 0.278024 0.000000
vn -0.094200 0.995553 0.000000
vn -0.094200 0.995553 0.000000
vn 0.000000 -0.358506 0.933527
vn 0.000000 -0.358506 0.933527
vn 0.000000 -0.337288 -0.941401
vn 0.000000 -0.337288 -0.941401
s 1
g pCube1
usemtl initialShadingGroup
f 1/1/1 2/2/2 4/3/3 3/4/4
s 2
f 9/7/5 10/8/6 11/9/7 12/10/8
s 3
f 5/15/9 6/16/10 8/17/11 7/18/12
s off
f 7/21/13 8/22/14 2/23/15 1/24/16
f 2/25/17 8/26/18 6/27/19 4/28/20
s 4
f 7/29/21 1/30/22 3/31/23 5/32/24
f 5/13/24 3/14/23 9/7/25 12/10/26
s 2
f 11/9/7 10/8/6 14/11/27 13/12/28
s 1
f 3/4/4 4/3/3 16/5/29 15/6/30
s 3
f 6/16/10 5/15/9 17/19/31 18/20/32
